<?xml version="1.0" encoding="UTF-8" standalone="no"?><svg xmlns="http://www.w3.org/2000/svg" xmlns:xlink="http://www.w3.org/1999/xlink" contentScriptType="application/ecmascript" contentStyleType="text/css" height="479px" preserveAspectRatio="none" style="width:648px;height:479px;" version="1.1" viewBox="0 0 648 479" width="648px" zoomAndPan="magnify"><defs><filter height="300%" id="ft7ro6ildtibl" width="300%" x="-1" y="-1"><feGaussianBlur result="blurOut" stdDeviation="2.0"/><feColorMatrix in="blurOut" result="blurOut2" type="matrix" values="0 0 0 0 0 0 0 0 0 0 0 0 0 0 0 0 0 0 .4 0"/><feOffset dx="4.0" dy="4.0" in="blurOut2" result="blurOut3"/><feBlend in="SourceGraphic" in2="blurOut3" mode="normal"/></filter></defs><g><line style="stroke: #A80036; stroke-width: 1.0; stroke-dasharray: 5.0,5.0;" x1="32" x2="32" y1="86.2969" y2="392.625"/><line style="stroke: #A80036; stroke-width: 1.0; stroke-dasharray: 5.0,5.0;" x1="224" x2="224" y1="86.2969" y2="392.625"/><line style="stroke: #A80036; stroke-width: 1.0; stroke-dasharray: 5.0,5.0;" x1="445" x2="445" y1="86.2969" y2="392.625"/><line style="stroke: #A80036; stroke-width: 1.0; stroke-dasharray: 5.0,5.0;" x1="571" x2="571" y1="86.2969" y2="392.625"/><text fill="#000000" font-family="sans-serif" font-size="14" lengthAdjust="spacingAndGlyphs" textLength="43" x="8" y="82.9951">Admin</text><ellipse cx="32.5" cy="13" fill="#FEFECE" filter="url(#ft7ro6ildtibl)" rx="8" ry="8" style="stroke: #A80036; stroke-width: 2.0;"/><path d="M32.5,21 L32.5,48 M19.5,29 L45.5,29 M32.5,48 L19.5,63 M32.5,48 L45.5,63 " fill="none" filter="url(#ft7ro6ildtibl)" style="stroke: #A80036; stroke-width: 2.0;"/><text fill="#000000" font-family="sans-serif" font-size="14" lengthAdjust="spacingAndGlyphs" textLength="43" x="8" y="404.6201">Admin</text><ellipse cx="32.5" cy="417.9219" fill="#FEFECE" filter="url(#ft7ro6ildtibl)" rx="8" ry="8" style="stroke: #A80036; stroke-width: 2.0;"/><path d="M32.5,425.9219 L32.5,452.9219 M19.5,433.9219 L45.5,433.9219 M32.5,452.9219 L19.5,467.9219 M32.5,452.9219 L45.5,467.9219 " fill="none" filter="url(#ft7ro6ildtibl)" style="stroke: #A80036; stroke-width: 2.0;"/><rect fill="#FEFECE" filter="url(#ft7ro6ildtibl)" height="30.2969" style="stroke: #A80036; stroke-width: 1.5;" width="95" x="175" y="51"/><text fill="#000000" font-family="sans-serif" font-size="14" lengthAdjust="spacingAndGlyphs" textLength="81" x="182" y="70.9951">Kubernetes</text><rect fill="#FEFECE" filter="url(#ft7ro6ildtibl)" height="30.2969" style="stroke: #A80036; stroke-width: 1.5;" width="95" x="175" y="391.625"/><text fill="#000000" font-family="sans-serif" font-size="14" lengthAdjust="spacingAndGlyphs" textLength="81" x="182" y="411.6201">Kubernetes</text><rect fill="#FEFECE" filter="url(#ft7ro6ildtibl)" height="30.2969" style="stroke: #A80036; stroke-width: 1.5;" width="121" x="383" y="51"/><text fill="#000000" font-family="sans-serif" font-size="14" lengthAdjust="spacingAndGlyphs" textLength="107" x="390" y="70.9951">HarborOperator</text><rect fill="#FEFECE" filter="url(#ft7ro6ildtibl)" height="30.2969" style="stroke: #A80036; stroke-width: 1.5;" width="121" x="383" y="391.625"/><text fill="#000000" font-family="sans-serif" font-size="14" lengthAdjust="spacingAndGlyphs" textLength="107" x="390" y="411.6201">HarborOperator</text><rect fill="#FEFECE" filter="url(#ft7ro6ildtibl)" height="30.2969" style="stroke: #A80036; stroke-width: 1.5;" width="103" x="518" y="51"/><text fill="#000000" font-family="sans-serif" font-size="14" lengthAdjust="spacingAndGlyphs" textLength="89" x="525" y="70.9951">CertManager</text><rect fill="#FEFECE" filter="url(#ft7ro6ildtibl)" height="30.2969" style="stroke: #A80036; stroke-width: 1.5;" width="103" x="518" y="391.625"/><text fill="#000000" font-family="sans-serif" font-size="14" lengthAdjust="spacingAndGlyphs" textLength="89" x="525" y="411.6201">CertManager</text><polygon fill="#A80036" points="212.5,128.5625,222.5,132.5625,212.5,136.5625,216.5,132.5625" style="stroke: #A80036; stroke-width: 1.0;"/><line style="stroke: #A80036; stroke-width: 1.0;" x1="32.5" x2="218.5" y1="132.5625" y2="132.5625"/><text fill="#000000" font-family="sans-serif" font-size="13" font-weight="bold" lengthAdjust="spacingAndGlyphs" textLength="9" x="39.5" y="119.9302">1</text><text fill="#000000" font-family="sans-serif" font-size="13" lengthAdjust="spacingAndGlyphs" textLength="98" x="52.5" y="112.3638">updates harbor</text><text fill="#000000" font-family="sans-serif" font-size="13" lengthAdjust="spacingAndGlyphs" textLength="155" x="52.5" y="127.4966">spec.certificateIssuerRef</text><polygon fill="#A80036" points="433.5,157.6953,443.5,161.6953,433.5,165.6953,437.5,161.6953" style="stroke: #A80036; stroke-width: 1.0;"/><line style="stroke: #A80036; stroke-width: 1.0;" x1="224.5" x2="439.5" y1="161.6953" y2="161.6953"/><text fill="#000000" font-family="sans-serif" font-size="13" font-weight="bold" lengthAdjust="spacingAndGlyphs" textLength="9" x="231.5" y="156.6294">2</text><text fill="#000000" font-family="sans-serif" font-size="13" lengthAdjust="spacingAndGlyphs" textLength="49" x="244.5" y="156.6294">triggers</text><polygon fill="#A80036" points="235.5,186.8281,225.5,190.8281,235.5,194.8281,231.5,190.8281" style="stroke: #A80036; stroke-width: 1.0;"/><line style="stroke: #A80036; stroke-width: 1.0;" x1="229.5" x2="444.5" y1="190.8281" y2="190.8281"/><text fill="#000000" font-family="sans-serif" font-size="13" font-weight="bold" lengthAdjust="spacingAndGlyphs" textLength="9" x="241.5" y="185.7622">3</text><text fill="#000000" font-family="sans-serif" font-size="13" lengthAdjust="spacingAndGlyphs" textLength="172" x="254.5" y="185.7622">updates registry-certificate</text><polygon fill="#A80036" points="559.5,215.9609,569.5,219.9609,559.5,223.9609,563.5,219.9609" style="stroke: #A80036; stroke-width: 1.0;"/><line style="stroke: #A80036; stroke-width: 1.0;" x1="224.5" x2="565.5" y1="219.9609" y2="219.9609"/><text fill="#000000" font-family="sans-serif" font-size="13" font-weight="bold" lengthAdjust="spacingAndGlyphs" textLength="9" x="231.5" y="214.895">4</text><text fill="#000000" font-family="sans-serif" font-size="13" lengthAdjust="spacingAndGlyphs" textLength="49" x="244.5" y="214.895">triggers</text><polygon fill="#A80036" points="235.5,245.0938,225.5,249.0938,235.5,253.0938,231.5,249.0938" style="stroke: #A80036; stroke-width: 1.0;"/><line style="stroke: #A80036; stroke-width: 1.0;" x1="229.5" x2="570.5" y1="249.0938" y2="249.0938"/><text fill="#000000" font-family="sans-serif" font-size="13" font-weight="bold" lengthAdjust="spacingAndGlyphs" textLength="9" x="241.5" y="244.0278">5</text><text fill="#000000" font-family="sans-serif" font-size="13" lengthAdjust="spacingAndGlyphs" textLength="96" x="254.5" y="244.0278">updates secret</text><line style="stroke: #A80036; stroke-width: 2.0;" x1="427.5" x2="437.5" y1="285.793" y2="295.793"/><line style="stroke: #A80036; stroke-width: 2.0;" x1="427.5" x2="437.5" y1="295.793" y2="285.793"/><line style="stroke: #A80036; stroke-width: 1.0;" x1="224.5" x2="432.5" y1="290.793" y2="290.793"/><text fill="#000000" font-family="sans-serif" font-size="13" font-weight="bold" lengthAdjust="spacingAndGlyphs" textLength="9" x="231.5" y="285.7271">6</text><text fill="#000000" font-family="sans-serif" font-size="13" lengthAdjust="spacingAndGlyphs" textLength="169" x="244.5" y="285.7271">triggers registry-certificate</text><path d="M450,262.0938 L450,302.0938 L636,302.0938 L636,272.0938 L626,262.0938 L450,262.0938 " fill="#FBFB77" filter="url(#ft7ro6ildtibl)" style="stroke: #A80036; stroke-width: 1.0;"/><path d="M626,262.0938 L626,272.0938 L636,272.0938 L626,262.0938 " fill="#FBFB77" style="stroke: #A80036; stroke-width: 1.0;"/><text fill="#000000" font-family="sans-serif" font-size="13" lengthAdjust="spacingAndGlyphs" textLength="165" x="456" y="279.1606">Harbor Operator does not</text><text fill="#000000" font-family="sans-serif" font-size="13" lengthAdjust="spacingAndGlyphs" textLength="165" x="456" y="294.2935">watch for certificate event</text><polygon fill="#A80036" points="235.5,328.4922,225.5,332.4922,235.5,336.4922,231.5,332.4922" style="stroke: #A80036; stroke-width: 1.0;"/><line style="stroke: #A80036; stroke-width: 1.0;" x1="229.5" x2="444.5" y1="332.4922" y2="332.4922"/><text fill="#000000" font-family="sans-serif" font-size="13" font-weight="bold" lengthAdjust="spacingAndGlyphs" textLength="9" x="241.5" y="327.4263">7</text><text fill="#000000" font-family="sans-serif" font-size="13" lengthAdjust="spacingAndGlyphs" textLength="184" x="254.5" y="327.4263">updates registry deployment</text><line style="stroke: #A80036; stroke-width: 1.0;" x1="224.5" x2="266.5" y1="361.625" y2="361.625"/><line style="stroke: #A80036; stroke-width: 1.0;" x1="266.5" x2="266.5" y1="361.625" y2="374.625"/><line style="stroke: #A80036; stroke-width: 1.0;" x1="225.5" x2="266.5" y1="374.625" y2="374.625"/><polygon fill="#A80036" points="235.5,370.625,225.5,374.625,235.5,378.625,231.5,374.625" style="stroke: #A80036; stroke-width: 1.0;"/><text fill="#000000" font-family="sans-serif" font-size="13" font-weight="bold" lengthAdjust="spacingAndGlyphs" textLength="9" x="231.5" y="356.5591">8</text><text fill="#000000" font-family="sans-serif" font-size="13" lengthAdjust="spacingAndGlyphs" textLength="132" x="244.5" y="356.5591">updates registry pod</text><!--MD5=[e9da33a11487fc2e092fb6ec9ee1a631]
@startuml
autonumber
actor Admin

Admin -> Kubernetes : updates harbor\nspec.certificateIssuerRef
Kubernetes -> HarborOperator : triggers
HarborOperator -> Kubernetes : updates registry-certificate
Kubernetes -> CertManager : triggers
CertManager -> Kubernetes : updates secret
Kubernetes -x HarborOperator : triggers registry-certificate
note right
  Harbor Operator does not
  watch for certificate event
end note
HarborOperator -> Kubernetes : updates registry deployment
Kubernetes -> Kubernetes : updates registry pod
@enduml

PlantUML version 1.2020.03beta11(Unknown compile time)
(GPL source distribution)
Java Runtime: Java(TM) SE Runtime Environment
JVM: Java HotSpot(TM) 64-Bit Server VM
Java Version: 1.7.0_25-b15
Operating System: Linux
Default Encoding: UTF-8
Language: en
Country: US
--></g></svg>