<?xml version="1.0" encoding="UTF-8" standalone="no"?><svg xmlns="http://www.w3.org/2000/svg" xmlns:xlink="http://www.w3.org/1999/xlink" contentScriptType="application/ecmascript" contentStyleType="text/css" height="396px" preserveAspectRatio="none" style="width:618px;height:396px;" version="1.1" viewBox="0 0 618 396" width="618px" zoomAndPan="magnify"><defs><filter height="300%" id="fb97cas6tfs1b" width="300%" x="-1" y="-1"><feGaussianBlur result="blurOut" stdDeviation="2.0"/><feColorMatrix in="blurOut" result="blurOut2" type="matrix" values="0 0 0 0 0 0 0 0 0 0 0 0 0 0 0 0 0 0 .4 0"/><feOffset dx="4.0" dy="4.0" in="blurOut2" result="blurOut3"/><feBlend in="SourceGraphic" in2="blurOut3" mode="normal"/></filter></defs><g><line style="stroke: #A80036; stroke-width: 1.0; stroke-dasharray: 5.0,5.0;" x1="32" x2="32" y1="86.2969" y2="309.2266"/><line style="stroke: #A80036; stroke-width: 1.0; stroke-dasharray: 5.0,5.0;" x1="199" x2="199" y1="86.2969" y2="309.2266"/><line style="stroke: #A80036; stroke-width: 1.0; stroke-dasharray: 5.0,5.0;" x1="338" x2="338" y1="86.2969" y2="309.2266"/><line style="stroke: #A80036; stroke-width: 1.0; stroke-dasharray: 5.0,5.0;" x1="479" x2="479" y1="86.2969" y2="309.2266"/><text fill="#000000" font-family="sans-serif" font-size="14" lengthAdjust="spacingAndGlyphs" textLength="43" x="8" y="82.9951">Admin</text><ellipse cx="32.5" cy="13" fill="#FEFECE" filter="url(#fb97cas6tfs1b)" rx="8" ry="8" style="stroke: #A80036; stroke-width: 2.0;"/><path d="M32.5,21 L32.5,48 M19.5,29 L45.5,29 M32.5,48 L19.5,63 M32.5,48 L45.5,63 " fill="none" filter="url(#fb97cas6tfs1b)" style="stroke: #A80036; stroke-width: 2.0;"/><text fill="#000000" font-family="sans-serif" font-size="14" lengthAdjust="spacingAndGlyphs" textLength="43" x="8" y="321.2217">Admin</text><ellipse cx="32.5" cy="334.5234" fill="#FEFECE" filter="url(#fb97cas6tfs1b)" rx="8" ry="8" style="stroke: #A80036; stroke-width: 2.0;"/><path d="M32.5,342.5234 L32.5,369.5234 M19.5,350.5234 L45.5,350.5234 M32.5,369.5234 L19.5,384.5234 M32.5,369.5234 L45.5,384.5234 " fill="none" filter="url(#fb97cas6tfs1b)" style="stroke: #A80036; stroke-width: 2.0;"/><rect fill="#FEFECE" filter="url(#fb97cas6tfs1b)" height="30.2969" style="stroke: #A80036; stroke-width: 1.5;" width="95" x="150" y="51"/><text fill="#000000" font-family="sans-serif" font-size="14" lengthAdjust="spacingAndGlyphs" textLength="81" x="157" y="70.9951">Kubernetes</text><rect fill="#FEFECE" filter="url(#fb97cas6tfs1b)" height="30.2969" style="stroke: #A80036; stroke-width: 1.5;" width="95" x="150" y="308.2266"/><text fill="#000000" font-family="sans-serif" font-size="14" lengthAdjust="spacingAndGlyphs" textLength="81" x="157" y="328.2217">Kubernetes</text><rect fill="#FEFECE" filter="url(#fb97cas6tfs1b)" height="30.2969" style="stroke: #A80036; stroke-width: 1.5;" width="121" x="276" y="51"/><text fill="#000000" font-family="sans-serif" font-size="14" lengthAdjust="spacingAndGlyphs" textLength="107" x="283" y="70.9951">HarborOperator</text><rect fill="#FEFECE" filter="url(#fb97cas6tfs1b)" height="30.2969" style="stroke: #A80036; stroke-width: 1.5;" width="121" x="276" y="308.2266"/><text fill="#000000" font-family="sans-serif" font-size="14" lengthAdjust="spacingAndGlyphs" textLength="107" x="283" y="328.2217">HarborOperator</text><rect fill="#FEFECE" filter="url(#fb97cas6tfs1b)" height="30.2969" style="stroke: #A80036; stroke-width: 1.5;" width="132" x="411" y="51"/><text fill="#000000" font-family="sans-serif" font-size="14" lengthAdjust="spacingAndGlyphs" textLength="118" x="418" y="70.9951">IngressController</text><rect fill="#FEFECE" filter="url(#fb97cas6tfs1b)" height="30.2969" style="stroke: #A80036; stroke-width: 1.5;" width="132" x="411" y="308.2266"/><text fill="#000000" font-family="sans-serif" font-size="14" lengthAdjust="spacingAndGlyphs" textLength="118" x="418" y="328.2217">IngressController</text><polygon fill="#A80036" points="187.5,128.5625,197.5,132.5625,187.5,136.5625,191.5,132.5625" style="stroke: #A80036; stroke-width: 1.0;"/><line style="stroke: #A80036; stroke-width: 1.0;" x1="32.5" x2="193.5" y1="132.5625" y2="132.5625"/><text fill="#000000" font-family="sans-serif" font-size="13" font-weight="bold" lengthAdjust="spacingAndGlyphs" textLength="9" x="39.5" y="119.9302">1</text><text fill="#000000" font-family="sans-serif" font-size="13" lengthAdjust="spacingAndGlyphs" textLength="100" x="52.5" y="112.3638">Updates harbor</text><text fill="#000000" font-family="sans-serif" font-size="13" lengthAdjust="spacingAndGlyphs" textLength="130" x="52.5" y="127.4966">spec.tlsSecretName</text><polygon fill="#A80036" points="326.5,157.6953,336.5,161.6953,326.5,165.6953,330.5,161.6953" style="stroke: #A80036; stroke-width: 1.0;"/><line style="stroke: #A80036; stroke-width: 1.0;" x1="199.5" x2="332.5" y1="161.6953" y2="161.6953"/><text fill="#000000" font-family="sans-serif" font-size="13" font-weight="bold" lengthAdjust="spacingAndGlyphs" textLength="9" x="206.5" y="156.6294">2</text><text fill="#000000" font-family="sans-serif" font-size="13" lengthAdjust="spacingAndGlyphs" textLength="49" x="219.5" y="156.6294">triggers</text><polygon fill="#A80036" points="210.5,186.8281,200.5,190.8281,210.5,194.8281,206.5,190.8281" style="stroke: #A80036; stroke-width: 1.0;"/><line style="stroke: #A80036; stroke-width: 1.0;" x1="204.5" x2="337.5" y1="190.8281" y2="190.8281"/><text fill="#000000" font-family="sans-serif" font-size="13" font-weight="bold" lengthAdjust="spacingAndGlyphs" textLength="9" x="216.5" y="185.7622">3</text><text fill="#000000" font-family="sans-serif" font-size="13" lengthAdjust="spacingAndGlyphs" textLength="102" x="229.5" y="185.7622">updates ingress</text><polygon fill="#A80036" points="467,215.9609,477,219.9609,467,223.9609,471,219.9609" style="stroke: #A80036; stroke-width: 1.0;"/><line style="stroke: #A80036; stroke-width: 1.0;" x1="199.5" x2="473" y1="219.9609" y2="219.9609"/><text fill="#000000" font-family="sans-serif" font-size="13" font-weight="bold" lengthAdjust="spacingAndGlyphs" textLength="9" x="206.5" y="214.895">4</text><text fill="#000000" font-family="sans-serif" font-size="13" lengthAdjust="spacingAndGlyphs" textLength="49" x="219.5" y="214.895">triggers</text><polygon fill="#A80036" points="210.5,245.0938,200.5,249.0938,210.5,253.0938,206.5,249.0938" style="stroke: #A80036; stroke-width: 1.0;"/><line style="stroke: #A80036; stroke-width: 1.0;" x1="204.5" x2="478" y1="249.0938" y2="249.0938"/><text fill="#000000" font-family="sans-serif" font-size="13" font-weight="bold" lengthAdjust="spacingAndGlyphs" textLength="9" x="216.5" y="244.0278">5</text><text fill="#000000" font-family="sans-serif" font-size="13" lengthAdjust="spacingAndGlyphs" textLength="139" x="229.5" y="244.0278">gets certificate secret</text><line style="stroke: #A80036; stroke-width: 1.0;" x1="479" x2="521" y1="278.2266" y2="278.2266"/><line style="stroke: #A80036; stroke-width: 1.0;" x1="521" x2="521" y1="278.2266" y2="291.2266"/><line style="stroke: #A80036; stroke-width: 1.0;" x1="480" x2="521" y1="291.2266" y2="291.2266"/><polygon fill="#A80036" points="490,287.2266,480,291.2266,490,295.2266,486,291.2266" style="stroke: #A80036; stroke-width: 1.0;"/><text fill="#000000" font-family="sans-serif" font-size="13" font-weight="bold" lengthAdjust="spacingAndGlyphs" textLength="9" x="486" y="273.1606">6</text><text fill="#000000" font-family="sans-serif" font-size="13" lengthAdjust="spacingAndGlyphs" textLength="107" x="499" y="273.1606">reload certificate</text><!--MD5=[1d194ff9e2eb1fbe49885c31b846d940]
@startuml
autonumber

actor Admin

Admin -> Kubernetes : Updates harbor\nspec.tlsSecretName
Kubernetes -> HarborOperator : triggers
HarborOperator -> Kubernetes : updates ingress
Kubernetes -> IngressController : triggers
IngressController -> Kubernetes : gets certificate secret
IngressController -> IngressController : reload certificate
@enduml

PlantUML version 1.2020.03beta11(Unknown compile time)
(GPL source distribution)
Java Runtime: Java(TM) SE Runtime Environment
JVM: Java HotSpot(TM) 64-Bit Server VM
Java Version: 1.7.0_25-b15
Operating System: Linux
Default Encoding: UTF-8
Language: en
Country: US
--></g></svg>