<?xml version="1.0" encoding="UTF-8" standalone="no"?><svg xmlns="http://www.w3.org/2000/svg" xmlns:xlink="http://www.w3.org/1999/xlink" contentScriptType="application/ecmascript" contentStyleType="text/css" height="339px" preserveAspectRatio="none" style="width:464px;height:339px;" version="1.1" viewBox="0 0 464 339" width="464px" zoomAndPan="magnify"><defs><filter height="300%" id="f1w9jdsrclng5o" width="300%" x="-1" y="-1"><feGaussianBlur result="blurOut" stdDeviation="2.0"/><feColorMatrix in="blurOut" result="blurOut2" type="matrix" values="0 0 0 0 0 0 0 0 0 0 0 0 0 0 0 0 0 0 .4 0"/><feOffset dx="4.0" dy="4.0" in="blurOut2" result="blurOut3"/><feBlend in="SourceGraphic" in2="blurOut3" mode="normal"/></filter></defs><g><line style="stroke: #A80036; stroke-width: 1.0; stroke-dasharray: 5.0,5.0;" x1="32" x2="32" y1="86.2969" y2="251.9609"/><line style="stroke: #A80036; stroke-width: 1.0; stroke-dasharray: 5.0,5.0;" x1="106" x2="106" y1="86.2969" y2="251.9609"/><line style="stroke: #A80036; stroke-width: 1.0; stroke-dasharray: 5.0,5.0;" x1="253" x2="253" y1="86.2969" y2="251.9609"/><line style="stroke: #A80036; stroke-width: 1.0; stroke-dasharray: 5.0,5.0;" x1="403" x2="403" y1="86.2969" y2="251.9609"/><text fill="#000000" font-family="sans-serif" font-size="14" lengthAdjust="spacingAndGlyphs" textLength="43" x="8" y="82.9951">Admin</text><ellipse cx="32.5" cy="13" fill="#FEFECE" filter="url(#f1w9jdsrclng5o)" rx="8" ry="8" style="stroke: #A80036; stroke-width: 2.0;"/><path d="M32.5,21 L32.5,48 M19.5,29 L45.5,29 M32.5,48 L19.5,63 M32.5,48 L45.5,63 " fill="none" filter="url(#f1w9jdsrclng5o)" style="stroke: #A80036; stroke-width: 2.0;"/><text fill="#000000" font-family="sans-serif" font-size="14" lengthAdjust="spacingAndGlyphs" textLength="43" x="8" y="263.9561">Admin</text><ellipse cx="32.5" cy="277.2578" fill="#FEFECE" filter="url(#f1w9jdsrclng5o)" rx="8" ry="8" style="stroke: #A80036; stroke-width: 2.0;"/><path d="M32.5,285.2578 L32.5,312.2578 M19.5,293.2578 L45.5,293.2578 M32.5,312.2578 L19.5,327.2578 M32.5,312.2578 L45.5,327.2578 " fill="none" filter="url(#f1w9jdsrclng5o)" style="stroke: #A80036; stroke-width: 2.0;"/><text fill="#000000" font-family="sans-serif" font-size="14" lengthAdjust="spacingAndGlyphs" textLength="73" x="67" y="82.9951">Installation</text><path d="M86,42 L86,66 M86,54 L103,54 " fill="none" filter="url(#f1w9jdsrclng5o)" style="stroke: #A80036; stroke-width: 2.0;"/><ellipse cx="115" cy="54" fill="#FEFECE" filter="url(#f1w9jdsrclng5o)" rx="12" ry="12" style="stroke: #A80036; stroke-width: 2.0;"/><text fill="#000000" font-family="sans-serif" font-size="14" lengthAdjust="spacingAndGlyphs" textLength="73" x="67" y="263.9561">Installation</text><path d="M86,271.2578 L86,295.2578 M86,283.2578 L103,283.2578 " fill="none" filter="url(#f1w9jdsrclng5o)" style="stroke: #A80036; stroke-width: 2.0;"/><ellipse cx="115" cy="283.2578" fill="#FEFECE" filter="url(#f1w9jdsrclng5o)" rx="12" ry="12" style="stroke: #A80036; stroke-width: 2.0;"/><rect fill="#FEFECE" filter="url(#f1w9jdsrclng5o)" height="30.2969" style="stroke: #A80036; stroke-width: 1.5;" width="95" x="204" y="51"/><text fill="#000000" font-family="sans-serif" font-size="14" lengthAdjust="spacingAndGlyphs" textLength="81" x="211" y="70.9951">Kubernetes</text><rect fill="#FEFECE" filter="url(#f1w9jdsrclng5o)" height="30.2969" style="stroke: #A80036; stroke-width: 1.5;" width="95" x="204" y="250.9609"/><text fill="#000000" font-family="sans-serif" font-size="14" lengthAdjust="spacingAndGlyphs" textLength="81" x="211" y="270.9561">Kubernetes</text><rect fill="#FEFECE" filter="url(#f1w9jdsrclng5o)" height="30.2969" style="stroke: #A80036; stroke-width: 1.5;" width="103" x="350" y="51"/><text fill="#000000" font-family="sans-serif" font-size="14" lengthAdjust="spacingAndGlyphs" textLength="89" x="357" y="70.9951">CertManager</text><rect fill="#FEFECE" filter="url(#f1w9jdsrclng5o)" height="30.2969" style="stroke: #A80036; stroke-width: 1.5;" width="103" x="350" y="250.9609"/><text fill="#000000" font-family="sans-serif" font-size="14" lengthAdjust="spacingAndGlyphs" textLength="89" x="357" y="270.9561">CertManager</text><polygon fill="#A80036" points="241.5,113.4297,251.5,117.4297,241.5,121.4297,245.5,117.4297" style="stroke: #A80036; stroke-width: 1.0;"/><line style="stroke: #A80036; stroke-width: 1.0;" x1="32.5" x2="247.5" y1="117.4297" y2="117.4297"/><text fill="#000000" font-family="sans-serif" font-size="13" lengthAdjust="spacingAndGlyphs" textLength="197" x="39.5" y="112.3638">creates annotated namespace</text><polygon fill="#A80036" points="241.5,142.5625,251.5,146.5625,241.5,150.5625,245.5,146.5625" style="stroke: #A80036; stroke-width: 1.0;"/><line style="stroke: #A80036; stroke-width: 1.0;" x1="32.5" x2="247.5" y1="146.5625" y2="146.5625"/><text fill="#000000" font-family="sans-serif" font-size="13" lengthAdjust="spacingAndGlyphs" textLength="108" x="39.5" y="141.4966">creates webhook</text><polygon fill="#A80036" points="391.5,171.6953,401.5,175.6953,391.5,179.6953,395.5,175.6953" style="stroke: #A80036; stroke-width: 1.0;"/><line style="stroke: #A80036; stroke-width: 1.0;" x1="253.5" x2="397.5" y1="175.6953" y2="175.6953"/><text fill="#000000" font-family="sans-serif" font-size="13" lengthAdjust="spacingAndGlyphs" textLength="49" x="260.5" y="170.6294">triggers</text><polygon fill="#A80036" points="264.5,200.8281,254.5,204.8281,264.5,208.8281,260.5,204.8281" style="stroke: #A80036; stroke-width: 1.0;"/><line style="stroke: #A80036; stroke-width: 1.0;" x1="258.5" x2="402.5" y1="204.8281" y2="204.8281"/><text fill="#000000" font-family="sans-serif" font-size="13" lengthAdjust="spacingAndGlyphs" textLength="92" x="270.5" y="199.7622">creates secret</text><polygon fill="#A80036" points="264.5,229.9609,254.5,233.9609,264.5,237.9609,260.5,233.9609" style="stroke: #A80036; stroke-width: 1.0;"/><line style="stroke: #A80036; stroke-width: 1.0;" x1="258.5" x2="402.5" y1="233.9609" y2="233.9609"/><text fill="#000000" font-family="sans-serif" font-size="13" lengthAdjust="spacingAndGlyphs" textLength="126" x="270.5" y="228.895">configures webhook</text><!--MD5=[4effc9ffb93659fa5c23bdd34cf8a484]
@startuml
actor Admin
boundary Installation

Admin -> Kubernetes : creates annotated namespace
Admin -> Kubernetes : creates webhook

Kubernetes -> CertManager : triggers

CertManager -> Kubernetes : creates secret
CertManager -> Kubernetes : configures webhook
@enduml

PlantUML version 1.2020.03beta11(Unknown compile time)
(GPL source distribution)
Java Runtime: Java(TM) SE Runtime Environment
JVM: Java HotSpot(TM) 64-Bit Server VM
Java Version: 1.7.0_25-b15
Operating System: Linux
Default Encoding: UTF-8
Language: en
Country: US
--></g></svg>